<?xml version="1.0" encoding="UTF-8" standalone="no"?>
<svg
   width="273.68509"
   height="476.36099"
   viewBox="0 0 273.68509 476.36099"
   fill="none"
   version="1.1"
   id="svg92"
   sodipodi:docname="6036cb030266b9441663441f521d9492.svg"
   xmlns:inkscape="http://www.inkscape.org/namespaces/inkscape"
   xmlns:sodipodi="http://sodipodi.sourceforge.net/DTD/sodipodi-0.dtd"
   xmlns="http://www.w3.org/2000/svg"
   xmlns:svg="http://www.w3.org/2000/svg">
  <defs
     id="defs96" />
  <sodipodi:namedview
     id="namedview94"
     pagecolor="#ffffff"
     bordercolor="#666666"
     borderopacity="1.0"
     inkscape:pageshadow="2"
     inkscape:pageopacity="0.0"
     inkscape:pagecheckerboard="0" />
  <path
     d="m 169.6391,476.361 c 57.463,0 104.046,-46.538 104.046,-103.945 0,-57.407 -46.583,-103.945 -104.046,-103.945 -57.462,0 -104.045,46.538 -104.045,103.945 0,57.407 46.583,103.945 104.045,103.945 z"
     fill="#f56539"
     id="path2" />
  <path
     d="m 240.2761,355.615 -31.541,46.823 c -2.666,3.958 -6.726,6.755 -11.363,7.83 l -0.649,0.151 52.628,-148.007 c 2.722,3.905 3.876,8.698 3.229,13.419 l -10.158,74.155 c -0.275,2.018 -1.01,3.943 -2.146,5.629 z"
     fill="#f56539"
     id="path4" />
  <path
     d="m 196.7201,411.453 c -0.29,0 -0.571,-0.123 -0.769,-0.346 -0.25,-0.283 -0.326,-0.679 -0.199,-1.035 l 52.629,-148.007 c 0.129,-0.364 0.451,-0.624 0.832,-0.677 0.389,-0.051 0.761,0.116 0.981,0.432 2.88,4.131 4.09,9.158 3.404,14.153 l -10.156,74.155 c -0.296,2.162 -1.096,4.26 -2.313,6.066 l -31.543,46.823 c -2.82,4.189 -7.077,7.122 -11.985,8.259 l -0.649,0.151 c -0.076,0.018 -0.154,0.026 -0.232,0.026 z m 52.88,-146.669 -51.26,144.155 c 3.889,-1.191 7.245,-3.671 9.542,-7.08 l 31.542,-46.823 c 1.041,-1.545 1.725,-3.34 1.979,-5.189 l 10.157,-74.155 c 0.517,-3.783 -0.176,-7.586 -1.96,-10.908 z"
     fill="#212121"
     id="path6" />
  <path
     d="m 101.6121,418.383 h 84.96 c 4.839,0 9.141,-1.35 9.791,-7.289 -5.758,0 -104.855,0 -104.855,0 0,0 1.501,7.289 10.104,7.289 z"
     fill="#f56539"
     id="path8" />
  <path
     d="m 186.5721,419.416 h -84.961 c -9.332,0 -11.096,-8.032 -11.113,-8.114 -0.063,-0.304 0.014,-0.621 0.21,-0.862 0.194,-0.241 0.489,-0.381 0.798,-0.381 h 104.856 c 0.292,0 0.571,0.125 0.767,0.344 0.195,0.219 0.288,0.51 0.256,0.803 -0.897,8.21 -8.36,8.21 -10.813,8.21 z m -93.632,-7.289 c 0.825,1.881 3.076,5.222 8.671,5.222 h 84.961 c 5.146,0 7.781,-1.577 8.583,-5.222 z"
     fill="#212121"
     id="path10" />
  <path
     d="m 91.5041,411.094 h 104.855 l 16.805,-92.867 h -87.65 z"
     fill="#eaeaea"
     id="path12" />
  <path
     d="M 196.3621,412.128 H 91.5061 c -0.337,0 -0.652,-0.166 -0.845,-0.443 -0.192,-0.277 -0.237,-0.631 -0.121,-0.948 l 34.012,-92.867 c 0.149,-0.407 0.535,-0.677 0.965,-0.677 h 87.648 c 0.306,0 0.595,0.136 0.791,0.371 0.196,0.236 0.278,0.546 0.222,0.847 l -16.802,92.867 c -0.091,0.492 -0.517,0.85 -1.014,0.85 z M 92.9811,410.06 h 102.521 l 16.43,-90.799 h -85.697 z"
     fill="#212121"
     id="path14" />
  <path
     d="m 237.3651,350.622 -41.002,60.471 16.805,-92.867 36.431,-56.152 z"
     fill="#212121"
     id="path16" />
  <path
     d="m 196.3651,412.127 c -0.13,0 -0.263,-0.025 -0.39,-0.077 -0.451,-0.185 -0.709,-0.661 -0.623,-1.141 l 16.804,-92.867 c 0.025,-0.136 0.076,-0.265 0.15,-0.38 l 36.431,-56.152 c 0.262,-0.406 0.774,-0.572 1.223,-0.404 0.452,0.17 0.726,0.631 0.66,1.11 l -12.233,88.547 c -0.022,0.158 -0.08,0.308 -0.169,0.44 l -41.001,60.471 c -0.197,0.291 -0.519,0.453 -0.852,0.453 z m 17.78,-93.511 -15.899,87.868 38.134,-56.244 11.566,-83.724 z m 23.221,32.006 h 0.011 z"
     fill="#212121"
     id="path18" />
  <path
     d="m 173.2011,388.935 6.905,-0.008 c 1.111,-0.001 1.849,0.753 1.648,1.687 l -1.263,5.872 c -0.205,0.953 -1.285,1.728 -2.411,1.728 h -7.001 c -1.125,0 -1.856,-0.774 -1.635,-1.726 l 1.36,-5.864 c 0.216,-0.934 1.288,-1.688 2.397,-1.689 z m -20.588,1.704 -1.522,5.853 c -0.247,0.95 0.459,1.723 1.579,1.723 h 6.974 c 1.121,0 2.218,-0.773 2.45,-1.725 l 1.425,-5.86 c 0.226,-0.932 -0.487,-1.684 -1.593,-1.683 l -6.877,0.007 c -1.104,0 -2.195,0.754 -2.436,1.685 z m -18.119,0.016 -1.682,5.84 c -0.272,0.948 0.409,1.719 1.524,1.719 h 6.945 c 1.117,0 2.232,-0.772 2.489,-1.721 l 1.585,-5.848 c 0.253,-0.93 -0.437,-1.68 -1.539,-1.679 l -6.849,0.007 c -1.097,10e-4 -2.205,0.752 -2.473,1.682 z m -18.042,0.014 -1.841,5.829 c -0.299,0.947 0.358,1.716 1.468,1.716 h 6.916 c 1.112,0 2.244,-0.77 2.528,-1.718 l 1.745,-5.836 c 0.278,-0.928 -0.387,-1.678 -1.484,-1.677 l -6.821,0.007 c -1.095,0.003 -2.219,0.753 -2.511,1.679 z m 57.377,-13.093 -1.305,5.629 c -0.212,0.914 0.508,1.656 1.61,1.654 l 6.862,-0.01 c 1.103,-0.002 2.158,-0.746 2.355,-1.662 l 1.211,-5.637 c 0.193,-0.896 -0.534,-1.619 -1.622,-1.617 l -6.769,0.017 c -1.085,0.004 -2.134,0.729 -2.342,1.626 z m -17.832,0.041 -1.461,5.619 c -0.236,0.912 0.46,1.652 1.557,1.651 l 6.834,-0.01 c 1.099,-0.002 2.171,-0.745 2.392,-1.658 l 1.368,-5.626 c 0.217,-0.895 -0.486,-1.615 -1.57,-1.613 l -6.741,0.016 c -1.082,0.002 -2.146,0.727 -2.379,1.621 z m -17.761,0.041 -1.614,5.608 c -0.262,0.911 0.411,1.649 1.503,1.648 l 6.807,-0.01 c 1.095,-0.002 2.184,-0.745 2.431,-1.655 l 1.522,-5.615 c 0.242,-0.893 -0.437,-1.612 -1.517,-1.61 l -6.715,0.017 c -1.079,0.002 -2.16,0.725 -2.417,1.617 z m -17.69,0.041 -1.767,5.597 c -0.287,0.909 0.362,1.646 1.45,1.645 l 6.78,-0.01 c 1.09,-0.003 2.195,-0.743 2.467,-1.652 l 1.676,-5.604 c 0.267,-0.891 -0.39,-1.61 -1.466,-1.607 l -6.688,0.016 c -1.073,0.003 -2.171,0.725 -2.452,1.615 z m 56.19,-12.657 -1.255,5.41 c -0.204,0.878 0.507,1.589 1.586,1.586 l 6.728,-0.02 c 1.082,-0.003 2.113,-0.721 2.302,-1.599 l 1.164,-5.416 c 0.186,-0.861 -0.53,-1.555 -1.597,-1.55 l -6.638,0.025 c -1.066,0.005 -2.09,0.703 -2.29,1.564 z m -17.487,0.065 -1.403,5.4 c -0.228,0.876 0.459,1.585 1.535,1.582 l 6.701,-0.019 c 1.078,-0.004 2.125,-0.719 2.338,-1.596 l 1.314,-5.406 c 0.209,-0.86 -0.484,-1.551 -1.547,-1.547 l -6.612,0.026 c -1.062,0.004 -2.103,0.701 -2.326,1.56 z m -17.418,0.065 -1.551,5.39 c -0.253,0.874 0.411,1.582 1.483,1.579 l 6.674,-0.02 c 1.074,-0.003 2.136,-0.717 2.374,-1.593 l 1.463,-5.395 c 0.232,-0.858 -0.438,-1.548 -1.497,-1.544 l -6.586,0.026 c -1.057,0.004 -2.114,0.7 -2.36,1.557 z m -17.35,0.065 -1.699,5.378 c -0.276,0.874 0.366,1.58 1.433,1.577 l 6.648,-0.02 c 1.068,-0.003 2.148,-0.716 2.41,-1.59 l 1.61,-5.385 c 0.256,-0.857 -0.393,-1.546 -1.448,-1.542 l -6.56,0.026 c -1.052,0.005 -2.125,0.701 -2.394,1.556 z m 55.049,-12.243 -1.207,5.201 c -0.195,0.844 0.504,1.525 1.563,1.521 l 6.598,-0.029 c 1.061,-0.004 2.069,-0.694 2.25,-1.54 l 1.12,-5.207 c 0.178,-0.828 -0.527,-1.494 -1.574,-1.488 l -6.51,0.034 c -1.046,0.007 -2.049,0.681 -2.24,1.508 z m -17.155,0.088 -1.349,5.191 c -0.22,0.843 0.458,1.524 1.513,1.519 l 6.572,-0.029 c 1.058,-0.005 2.081,-0.694 2.286,-1.537 l 1.264,-5.198 c 0.2,-0.827 -0.482,-1.492 -1.526,-1.486 l -6.486,0.035 c -1.042,0.006 -2.06,0.678 -2.274,1.505 z m -17.089,0.086 -1.491,5.183 c -0.242,0.841 0.413,1.52 1.464,1.516 l 6.546,-0.028 c 1.054,-0.004 2.092,-0.692 2.321,-1.534 l 1.407,-5.188 c 0.223,-0.826 -0.438,-1.489 -1.477,-1.484 l -6.462,0.035 c -1.037,0.004 -2.07,0.676 -2.308,1.5 z m -17.022,0.086 -1.634,5.173 c -0.265,0.84 0.369,1.518 1.415,1.513 l 6.521,-0.028 c 1.049,-0.004 2.104,-0.691 2.355,-1.531 l 1.548,-5.18 c 0.246,-0.823 -0.393,-1.486 -1.429,-1.48 l -6.437,0.034 c -1.032,0.007 -2.08,0.676 -2.339,1.499 z m 53.953,-11.851 -1.161,5.005 c -0.188,0.812 0.502,1.466 1.54,1.461 l 6.473,-0.036 c 1.041,-0.006 2.027,-0.671 2.202,-1.484 l 1.078,-5.01 c 0.171,-0.797 -0.523,-1.437 -1.551,-1.43 l -6.389,0.042 c -1.026,0.006 -2.006,0.655 -2.192,1.452 z m -16.834,0.107 -1.299,4.997 c -0.211,0.81 0.457,1.464 1.492,1.458 l 6.449,-0.036 c 1.036,-0.006 2.038,-0.67 2.234,-1.481 l 1.216,-5.002 c 0.194,-0.795 -0.48,-1.433 -1.504,-1.427 l -6.366,0.041 c -1.02,0.007 -2.015,0.656 -2.222,1.45 z m -16.772,0.107 -1.436,4.988 c -0.232,0.809 0.414,1.462 1.446,1.456 l 6.424,-0.036 c 1.032,-0.006 2.048,-0.669 2.269,-1.479 l 1.353,-4.993 c 0.215,-0.795 -0.437,-1.432 -1.456,-1.425 l -6.342,0.041 c -1.019,0.007 -2.029,0.655 -2.258,1.448 z m -16.708,0.107 -1.571,4.979 c -0.256,0.807 0.37,1.46 1.398,1.453 l 6.399,-0.036 c 1.03,-0.006 2.06,-0.667 2.302,-1.476 l 1.49,-4.984 c 0.237,-0.792 -0.394,-1.429 -1.41,-1.422 l -6.318,0.041 c -1.015,0.007 -2.039,0.653 -2.29,1.445 z m 52.902,-11.481 -1.118,4.82 c -0.181,0.781 0.499,1.411 1.519,1.404 l 6.353,-0.045 c 1.021,-0.007 1.987,-0.649 2.154,-1.431 l 1.038,-4.825 c 0.165,-0.768 -0.519,-1.382 -1.527,-1.375 l -6.274,0.049 c -1.007,0.01 -1.967,0.636 -2.145,1.403 z m -16.526,0.126 -1.251,4.812 c -0.203,0.78 0.456,1.409 1.472,1.401 l 6.33,-0.043 c 1.018,-0.007 1.997,-0.648 2.187,-1.429 l 1.171,-4.816 c 0.187,-0.767 -0.477,-1.38 -1.482,-1.373 l -6.249,0.049 c -1.005,0.008 -1.98,0.635 -2.178,1.399 z m -16.465,0.127 -1.383,4.803 c -0.224,0.779 0.414,1.406 1.426,1.399 l 6.306,-0.043 c 1.014,-0.008 2.008,-0.646 2.219,-1.427 l 1.304,-4.808 c 0.208,-0.765 -0.436,-1.378 -1.438,-1.37 l -6.226,0.048 c -1.001,0.008 -1.989,0.633 -2.208,1.398 z m -16.405,0.125 -1.515,4.795 c -0.246,0.779 0.373,1.405 1.381,1.398 l 6.282,-0.044 c 1.01,-0.007 2.019,-0.645 2.251,-1.424 l 1.435,-4.8 c 0.229,-0.764 -0.395,-1.376 -1.393,-1.367 l -6.203,0.048 c -0.995,0.007 -1.998,0.631 -2.238,1.394 z"
     fill="#f56539"
     id="path20" />
  <path
     d="m 52.9276,133.852 c 29.2315,0 52.9275,-23.673 52.9275,-52.876 0,-29.2028 -23.696,-52.8763 -52.9275,-52.8763 C 23.6965,28.0997 0,51.7732 0,80.976 c 0,29.203 23.6965,52.876 52.9276,52.876 z"
     fill="#f56539"
     id="path22" />
  <path
     d="m 168.4571,290.859 c -0.265,0.166 -0.605,0.203 -0.918,0.066 -0.195,-0.084 -19.73,-8.345 -40.991,0.059 -0.51,0.202 -1.091,-0.054 -1.3,-0.571 -0.208,-0.517 0.033,-1.105 0.544,-1.302 22.042,-8.715 42.304,-0.118 42.506,-0.031 0.508,0.221 0.75,0.813 0.541,1.323 -0.081,0.196 -0.216,0.352 -0.382,0.456 z"
     fill="#212121"
     id="path24" />
  <path
     d="m 157.1171,298.286 c -0.174,0.109 -0.384,0.164 -0.605,0.144 -0.128,-0.01 -12.831,-1.002 -23.355,7.939 -0.413,0.353 -1.046,0.294 -1.406,-0.133 -0.359,-0.427 -0.311,-1.061 0.107,-1.416 11.164,-9.487 24.242,-8.442 24.793,-8.393 0.548,0.049 0.962,0.536 0.923,1.089 -0.022,0.332 -0.201,0.61 -0.457,0.77 z"
     fill="#212121"
     id="path26" />
  <path
     d="M 87.1111,58.7726 14.5506,71.628 c -3.8673,0.6856 -6.4485,4.377 -5.7637,8.245 l 2.4044,13.588 c 0.685,3.868 4.3757,6.448 8.2432,5.763 L 23.3572,98.53 25.8368,112.538 32.834,96.851 91.9961,86.37 c 3.868,-0.686 6.449,-4.376 5.765,-8.245 l -2.405,-13.5882 c -0.686,-3.8692 -4.377,-6.45 -8.245,-5.7642 z"
     fill="#eaeaea"
     id="path28" />
  <path
     d="m 26.0155,113.561 c -0.1004,0.018 -0.2055,0.021 -0.3101,0.009 -0.4539,-0.056 -0.8181,-0.401 -0.8976,-0.851 l -2.2981,-12.984 -2.8973,0.514 c -4.4266,0.784 -8.6649,-2.18 -9.4491,-6.607 L 7.7582,80.055 c -0.7809,-4.421 2.1743,-8.6554 6.5899,-9.4479 0.0061,-0.0011 0.0112,-0.002 0.0184,-0.0033 L 86.9271,57.7485 c 4.426,-0.7839 8.665,2.1794 9.449,6.606 l 2.404,13.5885 c 0.38,2.143 -0.098,4.308 -1.347,6.093 -1.243,1.779 -3.105,2.971 -5.242,3.354 -0.006,0.001 -0.012,0.002 -0.018,0.003 L 33.5545,97.778 26.783,112.962 c -0.1444,0.32 -0.4348,0.539 -0.7675,0.599 z M 14.7151,72.6547 C 11.4258,73.2451 9.2245,76.398 9.8066,79.692 l 2.4052,13.587 c 0.5836,3.297 3.7406,5.505 7.0386,4.921 l 3.9215,-0.695 c 0.2723,-0.049 0.5518,0.013 0.7778,0.171 0.2269,0.158 0.38,0.399 0.4289,0.671 l 1.8878,10.666 5.6139,-12.587 c 0.1411,-0.315 0.4274,-0.54 0.7662,-0.6 0.0011,-10e-4 0.0011,-10e-4 0.0021,-10e-4 L 91.8111,85.344 c 1.584,-0.25 2.988,-1.171 3.919,-2.501 0.93,-1.33 1.286,-2.941 1.002,-4.539 l -2.404,-13.5884 c -0.584,-3.2969 -3.74,-5.5043 -7.037,-4.921 L 14.7285,72.6524 c -0.0041,7e-4 -0.0082,0.0014 -0.0134,0.0023 z"
     fill="#212121"
     id="path30" />
  <path
     d="m 41.2247,84.137 c 1.4967,-0.268 2.4924,-1.699 2.2241,-3.196 -0.2684,-1.497 -1.6992,-2.493 -3.1959,-2.224 -1.4966,0.268 -2.4924,1.7 -2.224,3.196 0.2683,1.497 1.6992,2.493 3.1958,2.224 z"
     fill="#212121"
     id="path32" />
  <path
     d="m 53.7951,81.912 c 1.497,-0.268 2.493,-1.699 2.224,-3.196 -0.268,-1.497 -1.699,-2.492 -3.1957,-2.224 -1.4968,0.269 -2.4926,1.7 -2.2243,3.197 0.2684,1.496 1.6992,2.492 3.196,2.223 z"
     fill="#212121"
     id="path34" />
  <path
     d="m 66.3611,79.686 c 1.497,-0.269 2.493,-1.7 2.225,-3.197 -0.269,-1.496 -1.7,-2.492 -3.196,-2.223 -1.497,0.268 -2.493,1.699 -2.225,3.196 0.269,1.497 1.7,2.492 3.196,2.224 z"
     fill="#212121"
     id="path36" />
  <path
     d="m 166.7011,138.841 c 21.361,0 38.678,-17.299 38.678,-38.64 0,-21.34 -17.317,-38.6404 -38.678,-38.6404 -21.361,0 -38.678,17.3004 -38.678,38.6404 0,21.341 17.317,38.64 38.678,38.64 z"
     fill="#f56539"
     id="path38" />
  <path
     d="m 193.6861,116.496 -45.311,8.403 c -1.758,0.326 -3.448,-0.839 -3.775,-2.601 l -5.666,-30.583 c -0.326,-1.762 0.834,-3.456 2.592,-3.781 l 45.312,-8.404 c 1.757,-0.326 3.448,0.839 3.774,2.601 l 5.666,30.583 c 0.327,1.762 -0.834,3.456 -2.592,3.782 z"
     fill="#eaeaea"
     id="path40" />
  <path
     d="m 193.8911,117.535 c -0.005,0.001 -0.008,0.001 -0.011,0.002 l -45.312,8.402 c -2.328,0.432 -4.574,-1.117 -5.006,-3.45 l -5.667,-30.584 c -0.431,-2.33 1.106,-4.577 3.428,-5.013 0.003,0 0.006,-10e-4 0.009,-10e-4 l 45.312,-8.403 c 1.127,-0.209 2.268,0.035 3.215,0.686 0.946,0.652 1.582,1.633 1.791,2.763 l 5.668,30.583 c 0.208,1.13 -0.034,2.275 -0.682,3.222 -0.648,0.946 -1.622,1.582 -2.745,1.793 z m -52.178,-28.56 c -1.179,0.221 -1.959,1.362 -1.74,2.545 l 5.667,30.585 c 0.106,0.573 0.429,1.072 0.909,1.402 0.481,0.331 1.06,0.455 1.633,0.349 l 45.312,-8.402 c 0.002,-10e-4 0.004,-10e-4 0.005,-10e-4 0.571,-0.107 1.065,-0.43 1.395,-0.91 0.33,-0.481 0.452,-1.062 0.345,-1.636 l -5.666,-30.584 c -0.107,-0.574 -0.43,-1.073 -0.911,-1.403 -0.48,-0.331 -1.059,-0.454 -1.631,-0.348 l -45.312,8.402 c -0.003,0 -0.005,0 -0.006,10e-4 z"
     fill="#212121"
     id="path42" />
  <path
     d="m 167.8871,103.658 c -1.104,0.207 -2.275,0.062 -3.348,-0.467 l -24.665,-12.14 c -0.524,-0.259 -0.741,-0.894 -0.483,-1.418 0.257,-0.525 0.888,-0.741 1.413,-0.484 l 24.665,12.14 c 1.297,0.638 2.823,0.354 3.804,-0.705 l 18.676,-20.176 c 0.396,-0.428 1.065,-0.453 1.493,-0.056 0.428,0.398 0.453,1.068 0.056,1.497 l -18.675,20.177 c -0.806,0.872 -1.839,1.426 -2.936,1.632 z"
     fill="#212121"
     id="path44" />
  <path
     d="m 146.6001,123.867 c -0.319,0.059 -0.659,-0.028 -0.915,-0.265 -0.429,-0.398 -0.453,-1.068 -0.057,-1.497 l 14.397,-15.555 c 0.396,-0.429 1.064,-0.452 1.492,-0.056 0.429,0.398 0.453,1.068 0.057,1.497 l -14.396,15.556 c -0.16,0.172 -0.363,0.279 -0.578,0.32 z"
     fill="#212121"
     id="path46" />
  <path
     d="m 194.9811,114.896 c -0.216,0.041 -0.446,0.014 -0.659,-0.09 l -19.015,-9.361 c -0.523,-0.258 -0.74,-0.893 -0.483,-1.418 0.258,-0.525 0.889,-0.74 1.413,-0.484 l 19.016,9.36 c 0.523,0.259 0.74,0.894 0.483,1.418 -0.152,0.312 -0.438,0.516 -0.755,0.575 z"
     fill="#212121"
     id="path48" />
  <path
     d="m 188.8681,245.623 c 26.858,0 48.63,-21.751 48.63,-48.583 0,-26.832 -21.772,-48.583 -48.63,-48.583 -26.857,0 -48.63,21.751 -48.63,48.583 0,26.832 21.773,48.583 48.63,48.583 z"
     fill="#f56539"
     id="path50" />
  <path
     d="m 99.7501,199.48 c 18.113,0 32.797,-14.67 32.797,-32.765 0,-18.096 -14.684,-32.766 -32.797,-32.766 -18.113,0 -32.797,14.67 -32.797,32.766 0,18.095 14.684,32.765 32.797,32.765 z"
     fill="#f56539"
     id="path52" />
  <path
     d="m 131.4151,55.5881 c 15.365,0 27.821,-12.4438 27.821,-27.794 C 159.2361,12.4439 146.7801,0 131.4151,0 c -15.365,0 -27.821,12.4439 -27.821,27.7941 0,15.3502 12.456,27.794 27.821,27.794 z"
     fill="#f56539"
     id="path54" />
  <path
     d="m 120.7711,178.901 -36.383,6.807 c -1.764,0.331 -3.461,-0.823 -3.788,-2.576 l -4.478,-23.967 c -0.329,-1.752 0.837,-3.442 2.602,-3.772 l 36.382,-6.807 c 1.765,-0.329 3.462,0.824 3.789,2.577 l 4.478,23.967 c 0.328,1.752 -0.837,3.441 -2.602,3.771 z"
     fill="#eaeaea"
     id="path56" />
  <path
     d="m 120.9731,179.937 c -0.003,10e-4 -0.006,10e-4 -0.009,0.002 l -36.382,6.807 c -1.132,0.212 -2.277,-0.027 -3.228,-0.672 -0.949,-0.646 -1.588,-1.62 -1.798,-2.745 l -4.477,-23.966 c -0.21,-1.125 0.034,-2.264 0.684,-3.209 0.65,-0.943 1.628,-1.579 2.756,-1.793 0.005,0 0.008,-10e-4 0.011,-10e-4 l 36.383,-6.808 c 2.336,-0.437 4.591,1.096 5.026,3.417 l 4.478,23.967 c 0.433,2.318 -1.111,4.559 -3.444,5.001 z m -42.061,-23.505 c -1.183,0.225 -1.967,1.363 -1.747,2.54 l 4.477,23.967 c 0.107,0.571 0.431,1.066 0.914,1.393 0.482,0.328 1.063,0.449 1.638,0.341 l 36.383,-6.807 c 0.002,-0.001 0.004,-0.001 0.005,-0.001 1.185,-0.225 1.969,-1.364 1.748,-2.54 l -4.477,-23.967 c -0.221,-1.179 -1.366,-1.958 -2.553,-1.735 l -36.382,6.809 c -0.003,0 -0.005,0 -0.006,0 z"
     fill="#212121"
     id="path58" />
  <path
     d="m 119.9411,156.74 c -0.001,0.001 -0.001,0.001 -0.002,0.001 l -23.719,4.437 c -1.771,0.331 -3.578,-0.48 -4.496,-2.018 l -1.957,-3.283 c -0.476,-0.796 -1.41,-1.215 -2.327,-1.044 -0.577,0.108 -1.13,-0.269 -1.237,-0.841 -0.107,-0.57 0.273,-1.122 0.847,-1.23 0.001,-0.001 0.002,-0.001 0.002,-0.001 1.79,-0.334 3.614,0.484 4.541,2.039 l 1.956,3.282 c 0.467,0.781 1.383,1.192 2.283,1.024 l 23.72,-4.437 c 0.576,-0.108 1.129,0.269 1.236,0.84 0.108,0.572 -0.272,1.123 -0.847,1.231 z"
     fill="#212121"
     id="path60" />
  <path
     d="m 192.6111,160.138 -30.703,5.559 c -2.379,0.431 -3.957,2.719 -3.524,5.11 l 11.092,61.319 c 0.433,2.391 2.712,3.98 5.091,3.549 l 43.079,-7.8 c 2.379,-0.431 3.957,-2.719 3.524,-5.11 l -8.842,-48.88 z"
     fill="#eaeaea"
     id="path62" />
  <path
     d="m 217.8461,228.899 c -0.004,0.001 -0.008,0.002 -0.013,0.002 l -43.079,7.8 c -1.424,0.258 -2.862,-0.057 -4.053,-0.887 -1.19,-0.83 -1.987,-2.074 -2.246,-3.505 l -11.094,-61.319 c -0.259,-1.431 0.052,-2.877 0.876,-4.071 0.821,-1.19 2.053,-1.989 3.472,-2.249 0.004,-10e-4 0.008,-10e-4 0.013,-0.002 l 30.703,-5.559 c 0.271,-0.049 0.55,0.012 0.777,0.17 l 19.718,13.748 c 0.227,0.158 0.381,0.399 0.431,0.673 l 8.844,48.879 c 0.259,1.431 -0.052,2.877 -0.875,4.071 -0.823,1.191 -2.055,1.989 -3.474,2.249 z m -55.76,-62.174 c -0.874,0.16 -1.634,0.652 -2.14,1.386 -0.508,0.735 -0.699,1.627 -0.54,2.509 l 11.094,61.319 c 0.16,0.882 0.652,1.65 1.385,2.16 0.733,0.511 1.621,0.705 2.499,0.546 l 43.078,-7.799 c 0.002,0 0.005,-0.001 0.007,-0.001 0.874,-0.161 1.635,-0.653 2.141,-1.387 0.508,-0.735 0.7,-1.627 0.54,-2.509 l -8.767,-48.453 -19.011,-13.255 -30.278,5.482 c -0.003,10e-4 -0.005,10e-4 -0.008,0.002 z"
     fill="#212121"
     id="path64" />
  <path
     d="m 204.4961,187.562 c 0,0 -0.002,0 -0.003,10e-4 l -31.12,5.632 c -0.564,0.103 -1.106,-0.275 -1.209,-0.842 -0.102,-0.566 0.271,-1.109 0.835,-1.212 0,0 0.001,0 0.002,-0.001 l 31.12,-5.632 c 0.564,-0.103 1.106,0.275 1.209,0.842 0.102,0.566 -0.27,1.109 -0.834,1.212 z"
     fill="#212121"
     id="path66" />
  <path
     d="m 206.1281,196.576 c 0,0 -10e-4,0 -0.002,0 l -31.12,5.633 c -0.565,0.102 -1.106,-0.275 -1.209,-0.842 -0.103,-0.566 0.271,-1.109 0.834,-1.213 0,0 0.001,0 0.002,0 l 31.121,-5.633 c 0.564,-0.102 1.106,0.275 1.208,0.843 0.102,0.566 -0.271,1.109 -0.834,1.212 z"
     fill="#212121"
     id="path68" />
  <path
     d="m 207.7571,205.59 c 0,0 -0.001,0 -0.002,0 l -31.12,5.633 c -0.565,0.102 -1.106,-0.275 -1.209,-0.843 -0.103,-0.566 0.271,-1.109 0.834,-1.212 0,0 0.001,0 0.002,0 l 31.121,-5.633 c 0.564,-0.102 1.105,0.275 1.208,0.842 0.103,0.566 -0.27,1.109 -0.834,1.213 z"
     fill="#212121"
     id="path70" />
  <path
     d="m 200.0711,216.285 c 0,0 -0.001,0.001 -0.002,0.001 l -21.802,3.946 c -0.564,0.103 -1.105,-0.275 -1.208,-0.842 -0.103,-0.566 0.271,-1.109 0.834,-1.212 0,0 0.001,0 0.002,0 l 21.802,-3.947 c 0.564,-0.103 1.106,0.275 1.208,0.842 0.103,0.567 -0.271,1.109 -0.834,1.212 z"
     fill="#212121"
     id="path72" />
  <path
     d="m 192.5821,160.12 2.257,12.477 c 0.433,2.392 2.712,3.98 5.092,3.549 l 12.415,-2.248 z"
     fill="#eaeaea"
     id="path74" />
  <path
     d="m 212.5341,174.926 c -0.001,0 -0.001,0 -0.002,0 l -12.416,2.248 c -1.423,0.258 -2.862,-0.057 -4.053,-0.886 -1.19,-0.83 -1.988,-2.075 -2.247,-3.506 l -2.257,-12.477 c -0.075,-0.416 0.106,-0.836 0.459,-1.064 0.354,-0.228 0.809,-0.219 1.154,0.021 l 19.763,13.78 c 0.347,0.241 0.514,0.667 0.424,1.079 -0.086,0.412 -0.412,0.729 -0.825,0.805 z m -18.481,-12.511 1.809,9.997 c 0.16,0.882 0.652,1.649 1.385,2.161 0.733,0.511 1.62,0.705 2.498,0.546 l 9.947,-1.801 z"
     fill="#212121"
     id="path76" />
  <path
     d="m 153.9761,37.7966 c -0.001,1e-4 -0.003,5e-4 -0.004,6e-4 l -36.822,6.1318 c -0.265,0.0441 -0.538,-0.0175 -0.755,-0.172 -0.218,-0.1555 -0.365,-0.3894 -0.409,-0.653 l -4.255,-25.5541 c -0.091,-0.5451 0.28,-1.0629 0.831,-1.1567 0.001,-2e-4 0.003,-5e-4 0.004,-7e-4 0.551,-0.0919 1.073,0.2778 1.164,0.8249 l 4.09,24.5632 35.822,-5.9655 c 0.552,-0.092 1.074,0.2778 1.165,0.8248 0.092,0.5459 -0.28,1.0629 -0.831,1.1567 z"
     fill="#212121"
     id="path78" />
  <path
     d="m 128.8971,24.7171 -8.19,1.365 2.593,15.5832 8.19,-1.365 z"
     fill="#eaeaea"
     id="path80" />
  <path
     d="m 131.6601,41.2898 c -0.001,2e-4 -0.003,5e-4 -0.004,7e-4 l -8.19,1.3649 c -0.552,0.0921 -1.074,-0.2776 -1.165,-0.8246 l -2.593,-15.5831 c -0.091,-0.546 0.281,-1.0629 0.831,-1.1568 10e-4,-10e-5 0.003,-5e-4 0.004,-6e-4 l 8.19,-1.365 c 0.265,-0.0442 0.537,0.0175 0.756,0.1719 0.218,0.1543 0.365,0.3891 0.409,0.6517 l 2.593,15.5841 c 0.043,0.2627 -0.02,0.5323 -0.177,0.7496 -0.155,0.2161 -0.391,0.3622 -0.654,0.4072 z m -7.524,-0.7828 6.19,-1.0322 -2.263,-13.6021 -6.191,1.0322 z"
     fill="#212121"
     id="path82" />
  <path
     d="m 136.5381,18.178 -8.19,1.365 3.445,20.7068 8.19,-1.365 z"
     fill="#eaeaea"
     id="path84" />
  <path
     d="m 140.1531,39.8738 c -0.001,2e-4 -0.003,5e-4 -0.004,7e-4 l -8.19,1.365 c -0.265,0.0441 -0.538,-0.0174 -0.755,-0.1719 -0.219,-0.1543 -0.366,-0.3891 -0.409,-0.6517 l -3.446,-20.7068 c -0.091,-0.546 0.281,-1.0629 0.832,-1.1567 0.001,-2e-4 0.002,-4e-4 0.004,-7e-4 l 8.19,-1.365 c 0.265,-0.0441 0.536,0.0176 0.755,0.1719 0.218,0.1543 0.365,0.3891 0.409,0.6517 l 3.445,20.7078 c 0.092,0.5448 -0.28,1.0619 -0.831,1.1557 z m -7.524,-0.7828 6.191,-1.0321 -3.115,-18.7249 -6.19,1.0322 z"
     fill="#212121"
     id="path86" />
  <path
     d="m 146.4321,27.0609 -8.19,1.3649 1.74,10.4597 8.19,-1.365 z"
     fill="#eaeaea"
     id="path88" />
  <path
     d="m 148.3421,38.5114 c -10e-4,2e-4 -0.003,5e-4 -0.004,7e-4 l -8.19,1.3649 c -0.552,0.0921 -1.073,-0.2776 -1.164,-0.8246 l -1.741,-10.4595 c -0.091,-0.546 0.281,-1.0629 0.831,-1.1568 0.001,-10e-5 0.003,-5e-4 0.004,-6e-4 l 8.19,-1.365 c 0.265,-0.0441 0.536,0.0176 0.755,0.1719 0.218,0.1543 0.365,0.3891 0.409,0.6517 l 1.741,10.4606 c 0.044,0.2626 -0.019,0.5322 -0.177,0.7496 -0.156,0.2152 -0.39,0.3621 -0.654,0.4071 z m -7.525,-0.7836 6.191,-1.0321 -1.412,-8.4786 -6.19,1.0321 z"
     fill="#212121"
     id="path90" />
</svg>
