<svg width="120" height="54" viewBox="0 0 120 54" fill="none" xmlns="http://www.w3.org/2000/svg">
<path d="M0.391113 16.8209C2.05778 16.8209 3.7268 16.8209 5.44769 16.8209C5.44769 17.8972 5.44769 18.9457 5.44769 20.1314C6.79139 17.3649 9.05447 16.3606 11.8597 16.421C14.6886 16.4814 16.8362 17.7322 18.1115 20.2569C18.5618 19.6897 18.972 19.0713 19.4835 18.5528C20.7895 17.2277 22.4302 16.5954 24.2808 16.4442C25.5042 16.3443 26.7089 16.4489 27.8758 16.8371C30.0328 17.5508 31.36 19.0759 32.1214 21.131C32.6683 22.6073 32.8215 24.1486 32.8239 25.7085C32.8286 29.3398 32.8262 32.9712 32.8262 36.6025C32.8262 36.6931 32.8145 36.7861 32.805 36.914C31.1572 36.914 29.5165 36.914 27.8192 36.914C27.8192 36.7327 27.8192 36.5537 27.8192 36.3747C27.8192 33.0037 27.838 29.6351 27.805 26.2642C27.798 25.49 27.706 24.6903 27.4892 23.9487C27.0436 22.4306 25.9969 21.4565 24.3751 21.2752C22.5387 21.0706 20.9757 21.5937 19.9644 23.2396C19.4694 24.044 19.2242 24.9367 19.2148 25.8713C19.1794 29.3468 19.1653 32.8224 19.1464 36.3003C19.1464 36.4979 19.1464 36.6955 19.1464 36.9233C17.4491 36.9233 15.7895 36.9233 14.0757 36.9233C14.0757 36.7303 14.0757 36.549 14.0757 36.37C14.0733 32.7689 14.0828 29.1678 14.0568 25.5667C14.0474 24.4043 13.7433 23.3 12.9347 22.4143C11.6806 21.0404 10.0941 20.9939 8.46041 21.5076C6.58865 22.0958 5.76593 23.5349 5.54905 25.3645C5.47362 26.0038 5.47126 26.6547 5.4689 27.2987C5.46183 30.3139 5.46654 33.3315 5.46654 36.3468C5.46654 36.5281 5.46654 36.7117 5.46654 36.9535C3.75273 36.9535 2.07192 36.9535 0.393471 36.9535C0.391113 30.2395 0.391113 23.5302 0.391113 16.8209Z" fill="#0A0103"/>
<path d="M52.64 19.206C52.64 18.5132 52.64 17.6949 52.64 16.8487C54.335 16.8487 55.9828 16.8487 57.6683 16.8487C57.6683 23.5185 57.6683 30.2 57.6683 36.9139C56.0228 36.9139 54.3656 36.9139 52.6659 36.9139C52.6659 36.0747 52.6659 35.2354 52.6659 34.3683C52.5811 34.3962 52.5268 34.3962 52.5056 34.4241C51.1643 36.2142 49.2619 37.0372 47.112 37.2906C43.8163 37.6811 40.9474 36.7117 38.6372 34.3288C36.9729 32.6131 36.1289 30.5161 35.8885 28.1681C35.6315 25.6689 35.9899 23.2721 37.3265 21.1147C39.408 17.7554 42.5245 16.2512 46.4872 16.4349C48.3189 16.5209 49.9974 17.0719 51.4495 18.211C51.8715 18.5435 52.2746 18.8992 52.64 19.206ZM46.6428 21.0612C43.4014 21.0635 40.9451 23.5394 40.9403 26.8081C40.9356 30.1046 43.4344 32.6828 46.6475 32.6921C49.9455 32.7038 52.5622 30.1023 52.5575 26.822C52.5504 23.6185 49.9219 21.0589 46.6428 21.0612Z" fill="#0A0103"/>
<path d="M96.0298 19.2179C96.0298 18.5112 96.0298 17.6905 96.0298 16.8466C97.7247 16.8466 99.3725 16.8466 101.056 16.8466C101.056 23.5234 101.056 30.2048 101.056 36.9165C99.4032 36.9165 97.7459 36.9165 96.0463 36.9165C96.0463 36.0703 96.0463 35.2334 96.0463 34.3104C95.6502 34.7219 95.3414 35.1008 94.976 35.4124C93.3164 36.8258 91.3292 37.3908 89.1863 37.3768C86.3622 37.3582 83.9223 36.3469 81.9822 34.2941C80.3084 32.5203 79.4645 30.3815 79.2547 27.98C79.0331 25.4437 79.4433 23.0282 80.8577 20.8755C82.9534 17.6882 86.0038 16.2608 89.8275 16.4328C91.6757 16.5165 93.3706 17.0651 94.8346 18.2159C95.2565 18.5484 95.6549 18.904 96.0298 19.2179ZM90.0185 21.0615C86.7794 21.0661 84.323 23.5443 84.3207 26.813C84.3183 30.1072 86.8219 32.6854 90.0326 32.6924C93.3329 32.6993 95.9473 30.0979 95.9378 26.8176C95.9308 23.6141 93.3023 21.0568 90.0185 21.0615Z" fill="#0A0103"/>
<path d="M76.5718 22.6611C74.9758 22.6611 73.3917 22.6611 71.8122 22.6611C71.2983 20.5897 69.1319 19.7249 67.3332 20.8593C66.0154 21.6916 66.0461 23.3538 67.4582 23.9932C68.3375 24.393 69.3134 24.5883 70.254 24.851C71.7038 25.2555 73.1866 25.5531 74.4996 26.3412C77.3544 28.0546 78.1512 31.651 76.2205 34.3082C75.1856 35.731 73.6958 36.5191 72.015 36.9632C69.2733 37.6885 66.6071 37.5374 64.1083 36.1123C62.0857 34.9569 60.9282 33.2226 60.7467 30.8955C60.742 30.8373 60.7538 30.7769 60.7585 30.6932C62.3261 30.6932 63.8797 30.6932 65.4732 30.6932C65.6359 32.0741 66.4704 32.8855 67.8118 33.2063C68.9056 33.4667 69.9829 33.3714 70.9989 32.8762C71.8665 32.4531 72.246 31.7603 72.1611 30.9071C72.0928 30.2259 71.6708 29.7958 71.0791 29.582C70.2351 29.2774 69.3606 29.0519 68.4907 28.8217C67.0951 28.4521 65.6948 28.1127 64.4006 27.4338C61.237 25.774 60.7184 22.3519 61.85 20.1131C62.6491 18.5299 63.9857 17.5117 65.65 16.9584C68.5425 15.9982 71.3714 16.1726 74.0022 17.7767C75.7349 18.8345 76.5411 20.4665 76.6071 22.4611C76.6118 22.5216 76.5906 22.5797 76.5718 22.6611Z" fill="#0A0103"/>
<path d="M110.563 16.8628C110.563 23.5512 110.563 30.221 110.563 36.9187C108.887 36.9187 107.229 36.9187 105.542 36.9187C105.542 30.2373 105.542 23.5698 105.542 16.8628C107.194 16.8628 108.851 16.8628 110.563 16.8628Z" fill="#0A0103"/>
<path d="M110.563 16.8628H105.544V30.3977L110.563 24.2998V16.8628Z" fill="#ED0331"/>
<path d="M108.031 12.3341C109.595 12.3341 110.863 11.0841 110.863 9.54207C110.863 8.00005 109.595 6.75 108.031 6.75C106.468 6.75 105.2 8.00005 105.2 9.54207C105.2 11.0841 106.468 12.3341 108.031 12.3341Z" fill="#0A0103"/>
<path d="M114.072 33.7444C114.072 33.2586 114.189 32.8077 114.424 32.3917C114.661 31.9757 114.988 31.6486 115.404 31.4105C115.823 31.17 116.275 31.0498 116.759 31.0498C117.244 31.0498 117.694 31.17 118.111 31.4105C118.527 31.6486 118.852 31.9757 119.087 32.3917C119.324 32.8077 119.443 33.2586 119.443 33.7444C119.443 34.2181 119.329 34.6618 119.102 35.0755C118.875 35.4891 118.552 35.8221 118.133 36.0746C117.717 36.3247 117.259 36.4498 116.759 36.4498C116.262 36.4498 115.804 36.326 115.385 36.0783C114.969 35.8282 114.646 35.4963 114.416 35.0827C114.187 34.669 114.072 34.2229 114.072 33.7444ZM114.507 33.7444C114.507 34.158 114.608 34.5416 114.81 34.8951C115.012 35.2462 115.286 35.5215 115.631 35.7211C115.98 35.9207 116.356 36.0205 116.759 36.0205C117.166 36.0205 117.543 35.9195 117.891 35.7175C118.239 35.5131 118.512 35.2366 118.709 34.8879C118.908 34.5392 119.008 34.158 119.008 33.7444C119.008 33.3332 118.908 32.9544 118.709 32.6081C118.512 32.2594 118.239 31.9853 117.891 31.7857C117.543 31.5837 117.166 31.4827 116.759 31.4827C116.356 31.4827 115.98 31.5825 115.631 31.7821C115.283 31.9793 115.008 32.2534 114.806 32.6045C114.607 32.9556 114.507 33.3356 114.507 33.7444ZM116.203 34.0149V35.2342H115.669V32.1716H116.714C117.1 32.1716 117.399 32.251 117.611 32.4097C117.825 32.566 117.933 32.7945 117.933 33.0951C117.933 33.3909 117.771 33.6169 117.448 33.7732C117.756 33.8935 117.911 34.1388 117.914 34.5091V34.7292C117.914 34.936 117.935 35.0851 117.978 35.1765V35.2342H117.429C117.394 35.1476 117.376 34.9937 117.376 34.7724C117.376 34.5488 117.372 34.4165 117.365 34.3757C117.325 34.1448 117.159 34.0246 116.869 34.0149H116.203ZM116.203 33.5532H116.793C116.975 33.5484 117.121 33.5063 117.232 33.427C117.343 33.3476 117.399 33.243 117.399 33.1131C117.399 32.9376 117.35 32.8137 117.251 32.7416C117.153 32.667 116.978 32.6298 116.725 32.6298H116.203V33.5532Z" fill="#0A0103"/>
</svg>
